<?xml version="1.0" encoding="iso-8859-1"?>
<!-- Uploaded to: SVG Repo, www.svgrepo.com, Generator: SVG Repo Mixer Tools -->
<svg height="800px" width="800px" version="1.1" id="Layer_1" xmlns="http://www.w3.org/2000/svg" xmlns:xlink="http://www.w3.org/1999/xlink" 
	 viewBox="0 0 512 512" xml:space="preserve">
<circle style="fill:#FFE356;" cx="256" cy="256" r="256"/>
<path style="fill:#FEFEFE;" d="M370.987,190.107c0,31.053-7.436,46.545-17.214,59.421c-5.439,8.951-12.049,17.145-19.692,24.306
	c-12.669,17.764-23.961,43.585-24.512,100.389c0,2.754-2.272,4.957-4.957,4.957h-99.632c-2.754,0-4.958-2.203-4.958-4.957
	c-0.62-56.874-11.843-82.694-24.512-100.389c-7.574-7.161-14.253-15.354-19.692-24.306c-9.708-12.876-17.214-28.299-17.214-59.421
	C138.604,36.08,370.987,36.08,370.987,190.107z"/>
<path style="fill:#E4E7ED;" d="M214.894,379.18h79.802v42.277c0,2.548-2.066,4.544-4.544,4.544h-70.713
	c-2.548,0-4.544-2.066-4.544-4.544V379.18z"/>
<path style="fill:#FEFEFE;" d="M214.619,388.751h80.353c2.685,0,4.82,2.203,4.82,4.82l0,0c0,2.685-2.203,4.82-4.82,4.82h-80.353
	c-2.685,0-4.82-2.203-4.82-4.82l0,0C209.799,390.885,212.002,388.751,214.619,388.751z"/>
<path style="fill:#6C7678;" d="M222.537,426.001h64.516l-3.236,5.577c-2.134,3.649-6.059,5.784-10.604,5.784h-36.837
	c-4.544,0-8.469-2.134-10.604-5.784L222.537,426.001z"/>
<path style="fill:#FEFEFE;" d="M214.619,406.102h80.353c2.685,0,4.82,2.203,4.82,4.82l0,0c0,2.685-2.203,4.82-4.82,4.82h-80.353
	c-2.685,0-4.82-2.203-4.82-4.82l0,0C209.799,408.237,212.002,406.102,214.619,406.102z"/>
<path style="fill:#5FDC68;" d="M333.53,146.04c-142.873-11.43-104.245,121.528-37.457,80.077
	C326.713,207.113,316.385,158.434,333.53,146.04z"/>
<path style="fill:#5D718F;" d="M314.939,158.365c-77.392,13.013-61.556,143.905-60.11,200.297l-7.712,0.069
	C245.672,302.752,234.173,166.352,314.939,158.365z"/>
<path style="fill:#5FDC68;" d="M176.198,213.723c92.265-13.013,72.297,66.857,31.053,44.824
	C186.939,247.669,188.385,219.783,176.198,213.723z"/>
<path style="fill:#5D718F;" d="M250.629,290.152l-2.203,0.138c-8.194-56.323-47.441-60.729-47.578-60.798
	C229.078,233.898,248.495,254.623,250.629,290.152z"/>
<path style="fill:#F6F7FA;" d="M344.478,246.36c-20.725,27.473-42.965,50.883-44.204,132.751h4.338c2.754,0,4.957-2.203,4.957-4.957
	c0.62-56.874,11.843-82.694,24.512-100.389c7.574-7.161,14.253-15.354,19.692-24.306c43.103-56.942,11.292-148.037-60.179-168.693
	c64.792,24.581,91.507,111.682,50.814,165.594H344.478z"/>
<path style="fill:#FF7069;" d="M210.487,356.94c2.823,0,5.439,0.826,7.574,2.272c3.512-5.577,9.708-9.295,16.8-9.295
	c5.439,0,10.328,2.203,13.909,5.715c1.997-1.171,4.338-1.79,6.885-1.79c1.997,0,3.925,0.413,5.646,1.239
	c3.512-3.167,8.194-5.095,13.289-5.095c7.092,0,13.289,3.718,16.8,9.295c2.203-1.446,4.82-2.272,7.574-2.272
	c4.338,0,8.263,1.997,10.81,5.164c-0.138,3.856-0.275,7.918-0.275,12.118c0,2.754-2.272,4.958-4.958,4.958H204.91
	c-2.754,0-4.958-2.203-4.958-4.958c-0.069-4.2-0.138-8.263-0.275-12.118c2.548-3.167,6.472-5.164,10.81-5.164V356.94z"/>
<path style="fill:#F7635B;" d="M309.913,363.413c-0.138,3.443-0.207,7.092-0.275,10.81c0,2.754-2.272,4.957-4.957,4.957h-99.632
	c-2.754,0-4.958-2.203-4.958-4.957c-0.069-3.718-0.138-7.299-0.275-10.81c2.479-2.066,5.715-3.305,9.158-3.305
	c2.892,0,5.646,0.895,7.849,2.341c3.649-5.784,10.053-9.64,17.42-9.64c5.646,0,10.741,2.272,14.459,5.921
	c2.066-1.171,4.544-1.859,7.092-1.859c2.066,0,4.062,0.482,5.853,1.239c3.649-3.305,8.469-5.302,13.771-5.302
	c7.367,0,13.771,3.856,17.42,9.64c2.272-1.515,4.957-2.341,7.849-2.341c3.512,0,6.679,1.239,9.158,3.305H309.913z"/>
</svg>